{"title":"Singham Returns (2014) - 1CD - DVDSCR-Rip - Hindi - XviD - MP3 -","uid":10786704,"size":730133374,"categoryP":"video","categoryS":"movies","magnet":"?xt=urn:btih:9e6fe12d8df538f90e5c744a4375a43fc853f209&amp;dn=Singham+Returns+%282014%29+-+1CD+-+DVDSCR-Rip+-+Hindi+-+XviD+-+MP3+-&amp;tr=udp%3A%2F%2Ftracker.openbittorrent.com%3A80&amp;tr=udp%3A%2F%2Fopen.demonii.com%3A1337&amp;tr=udp%3A%2F%2Ftracker.coppersurfer.tk%3A6969&amp;tr=udp%3A%2F%2Fexodus.desync.com%3A6969","seeders":13,"leechers":0,"uploader":"inovai","files":3,"time":1408216252,"description":"Singham Returns (2014) - 1CD - DVDSCR-Rip - Hindi - XviD - MP3 - Mafiaking - TeamTNT ExClusive.Avi\n\nGeneral Info:-\nUnique ID : 174914297431544445642771491001136447207 (0x839744B0208B68ECBCB2AD511B0DFEE7)\n\nFormat : Matroska\nFormat version : Version 4 / Version 2\nFile size : 693 MiB\nDuration : 2h 18mn\nOverall bit rate : 700 Kbps\nMovie name : Singham Returns (2014) - 1CD - DVDSCR-Rip - Hindi - XviD - MP3 - Mafiaking - TeamTNT ExClusive\nEncoded date : UTC 2014-08-15 20:08:04\nWriting application : mkvmerge v7.0.0 ('Where We Going') 32bit built on Jun 9 2014 15:08:34\nWriting library : libebml v1.3.0 + libmatroska v1.4.1\n\n\nVideo\nID : 1\nFormat : MPEG-4 Visual\nFormat profile : Advanced Simple@L5\nFormat settings, BVOP : Yes\nFormat settings, QPel : No\nFormat settings, GMC : No warppoints\nFormat settings, Matrix : Default (H.263)\nCodec ID : V_MS/VFW/FOURCC / XVID\nCodec ID/Hint : XviD\nDuration : 2h 18mn\nBit rate : 622 Kbps\nWidth : 640 pixels\nHeight : 272 pixels\nDisplay aspect ratio : 2.35:1\nFrame rate mode : Constant\nFrame rate : 29.970 fps\nColor space : YUV\nChroma subsampling : 4:2:0\nBit depth : 8 bits\nScan type : Progressive\nCompression mode : Lossy\nBits/(Pixel*Frame) : 0.119\nStream size : 615 MiB (89%)\nTitle : Mafiaking@TeamTNT\nWriting library : XviD 1.2.1 (UTC 2008-12-04)\nLanguage : Hindi\nDefault : Yes\nForced : No\n\n\nAudio\nID : 2\nFormat : MPEG Audio\nFormat version : Version 2\nFormat profile : Layer 3\nMode : Joint stereo\nMode extension : MS Stereo\nCodec ID : A_MPEG/L3\nCodec ID/Hint : MP3\nDuration : 2h 18mn\nBit rate mode : Constant\nBit rate : 64.0 Kbps\nChannel(s) : 2 channels\nSampling rate : 24.0 KHz\nCompression mode : Lossy\nDelay relative to video : 20ms\nStream size : 63.3 MiB (9%)\nTitle : Mafiaking@TeamTNT\nLanguage : Hindi\nDefault : Yes\nForced : No\n\n\n\nSAMPLE WITH IN TORRENT\n\nThanks to TeamTNT and mafiaking!!\n\n","torrent":{"xt":"urn:btih:9e6fe12d8df538f90e5c744a4375a43fc853f209","amp;dn":"Singham+Returns+%282014%29+-+1CD+-+DVDSCR-Rip+-+Hindi+-+XviD+-+MP3+-","amp;tr":["udp%3A%2F%2Ftracker.openbittorrent.com%3A80","udp%3A%2F%2Fopen.demonii.com%3A1337","udp%3A%2F%2Ftracker.coppersurfer.tk%3A6969","udp%3A%2F%2Fexodus.desync.com%3A6969"],"infoHash":"9e6fe12d8df538f90e5c744a4375a43fc853f209","infoHashBuffer":{"type":"Buffer","data":[158,111,225,45,141,245,56,249,14,92,116,74,67,117,164,63,200,83,242,9]},"announce":[],"urlList":[]}}